<?xml version="1.0" encoding="UTF-8"?>
<svg id="Layer_2" data-name="Layer 2" xmlns="http://www.w3.org/2000/svg" xmlns:xlink="http://www.w3.org/1999/xlink" viewBox="0 0 1543 575.6">
  <defs>
    <style>
      .cls-1 {
        clip-path: url(#clippath);
      }

      .cls-2 {
        fill: none;
      }

      .cls-2, .cls-3, .cls-4 {
        stroke-width: 0px;
      }

      .cls-5 {
        clip-path: url(#clippath-1);
      }

      .cls-6 {
        clip-path: url(#clippath-2);
      }

      .cls-7 {
        isolation: isolate;
        opacity: .2;
      }

      .cls-3 {
        fill: #CA8A04;
      }

      .cls-4 {
        fill: #CA8A04;
      }
    </style>
    <clipPath id="clippath">
      <rect class="cls-2" x="253.8" width="1040.91" height="575.6"/>
    </clipPath>
    <clipPath id="clippath-1">
      <rect class="cls-2" x="253.81" y="0" width="1040.91" height="575.6"/>
    </clipPath>
    <clipPath id="clippath-2">
      <rect class="cls-2" x="253.8" width="1040.91" height="575.6"/>
    </clipPath>
  </defs>
  <g id="Layer_1-2" data-name="Layer 1">
    <g>
      <g class="cls-1">
        <g class="cls-7">
          <g class="cls-5">
            <g class="cls-6">
              <g>
                <path class="cls-3" d="m463.1,505.42l-21.37-33.06h-154.75c-2.7-17.84-4.2-26.77-4.5-26.77,2.1-1.5,5.02-3.52,8.77-6.07,3.75-2.55,8.4-5.62,13.95-9.22,10.8-7.2,20.84-13.95,30.14-20.24,9.29-6.3,19.72-14.02,31.26-23.17,11.55-9.14,21.37-17.84,29.47-26.09,8.1-8.25,14.92-17.32,20.47-27.22,5.55-9.59,8.32-18.89,8.32-27.89,0-10.2-2.4-19.53-7.2-28-4.8-8.47-11.13-15.29-19.01-20.47s-16.53-7.76-25.98-7.76c-19.95,0-36.07,7.05-48.36,21.14,5.7,1.65,10.76,4.91,15.18,9.78,4.42,4.87,6.64,10.99,6.64,18.33,0,9.75-3.23,17.62-9.67,23.62-6.45,6-14.77,9-24.97,9-12.45,0-21.78-3.71-28-11.13-6.22-7.42-9.33-16.31-9.33-26.65,0-12.44,4.84-23.95,14.51-34.53,9.67-10.57,22.6-19.12,38.8-25.64s34.04-9.78,53.53-9.78c27.89,0,49.93,7.46,66.13,22.38,16.2,14.92,24.29,35.88,24.29,62.87,0,11.4-4.8,24.14-14.4,38.24-9.6,14.1-24.97,28.87-46.11,44.31l-60.73,44.09h120.11l8.32,67.7-15.52,2.25Z"/>
                <path class="cls-3" d="m631.89,478.43c-17.4,0-33.18-3.64-47.35-10.91s-25.61-16.98-34.3-29.13c-17.99-25.04-26.99-54.13-26.99-87.27,0-16.04,2.4-31.53,7.2-46.45,4.8-14.92,11.55-28.45,20.24-40.6,9-12.15,20.39-21.74,34.19-28.79,14.24-7.2,29.92-10.8,47.01-10.8s32.95,3.6,47.12,10.8c14.17,7.2,25.6,16.8,34.3,28.79,18.14,25.19,27.22,54.21,27.22,87.05s-9,62.23-26.99,87.27c-8.7,12.15-20.13,21.86-34.3,29.13s-29.95,10.91-47.35,10.91Zm0-28.57c12.15,0,22.83-4.84,32.05-14.51,9.22-9.67,16.01-21.85,20.36-36.55,4.35-14.84,6.52-30.74,6.52-47.68s-2.25-32.91-6.75-47.91c-4.5-14.99-11.32-27.44-20.47-37.34-9.3-9.75-19.87-14.62-31.71-14.62s-22.57,4.91-31.72,14.73c-9.15,9.82-15.97,22.23-20.47,37.23-4.5,15-6.75,30.97-6.75,47.91s2.21,32.95,6.64,47.57c4.42,14.62,11.21,26.81,20.36,36.55,9.3,9.75,19.94,14.62,31.94,14.62Z"/>
                <path class="cls-3" d="m979.28,505.42l-21.37-33.06h-154.75c-2.7-17.84-4.2-26.77-4.5-26.77,2.1-1.5,5.02-3.52,8.77-6.07,3.75-2.55,8.4-5.62,13.95-9.22,10.8-7.2,20.84-13.95,30.14-20.24,9.29-6.3,19.72-14.02,31.26-23.17,11.55-9.14,21.37-17.84,29.47-26.09,8.1-8.25,14.92-17.32,20.47-27.22,5.54-9.59,8.32-18.89,8.32-27.89,0-10.2-2.4-19.53-7.2-28-4.8-8.47-11.13-15.29-19.01-20.47-7.87-5.17-16.53-7.76-25.98-7.76-19.95,0-36.07,7.05-48.36,21.14,5.7,1.65,10.76,4.91,15.18,9.78,4.42,4.87,6.64,10.99,6.64,18.33,0,9.75-3.23,17.62-9.67,23.62-6.45,6-14.77,9-24.97,9-12.45,0-21.78-3.71-28-11.13-6.22-7.42-9.33-16.31-9.33-26.65,0-12.44,4.84-23.95,14.51-34.53,9.67-10.57,22.6-19.12,38.8-25.64s34.04-9.78,53.53-9.78c27.89,0,49.93,7.46,66.13,22.38,16.2,14.92,24.29,35.88,24.29,62.87,0,11.4-4.8,24.14-14.4,38.24-9.6,14.1-24.97,28.87-46.11,44.31l-60.73,44.09h120.11l8.32,67.7-15.52,2.25Z"/>
                <path class="cls-3" d="m1122.21,540.51c-14.55,0-27.74-1.61-39.59-4.84-11.85-3.23-21.52-8.36-29.02-15.41-7.65-7.05-11.47-15.52-11.47-25.42s2.62-17.36,7.87-23.28c5.25-5.92,13.19-8.88,23.84-8.88,9.3,0,16.79,3.19,22.49,9.56,5.7,6.37,8.55,13.61,8.55,21.71,0,4.05-.98,8.32-2.92,12.82l-3.15,7.42c9.74,1.35,15.89,2.02,18.44,2.02,13.64,0,25.83-2.14,36.55-6.41,10.72-4.27,19.38-10.09,25.98-17.43,13.34-14.55,20.02-32.31,20.02-53.31,0-13.64-2.7-25.6-8.1-35.88-5.4-10.27-12.82-18.41-22.27-24.4-18.6-11.7-41.54-17.54-68.83-17.54-6.9,0-16.57.83-29.02,2.47l-13.27-16.19,16.87-116.51h152.95l-13.27,38.24h-112.01l-10.57,67.25c5.25-.6,10.68-1.05,16.31-1.35,5.62-.3,11.43-.45,17.43-.45,22.19,0,41.42,2.47,57.7,7.42,16.27,4.95,29.13,12,38.57,21.14,18.45,17.85,27.67,41.54,27.67,71.08s-10.72,53.68-32.17,74.23c-10.35,9.9-23.77,17.69-40.26,23.39-16.5,5.7-34.94,8.55-55.33,8.55Z"/>
              </g>
            </g>
          </g>
        </g>
      </g>
      <g>
        <path class="cls-4" d="m119.05,403.97c.19,2.26-.38,3.77-1.51,5.65-5.27,8.29-12.81,18.27-23.35,20.15-4.14.75-7.91-.19-11.3-2.07-.75-.57-10.74-7.91-10.74-8.66.19,0,.38,0,.75.19-.38-.38-.75-.57-.94-.57.56.57-1.88-.94-2.26-1.13-1.51-1.13-2.64-2.45-3.58-3.77-2.07-2.45-4.14-4.52-6.4-6.59-.94-.75-9.79-11.11-8.47-12.43.19-.19.75.94,1.13.57l-2.45-3.01v.38c-.38.56-11.49-17.14-12.62-18.83-1.88-3.01-4.52-6.4-5.46-9.98-.19-.56,0-1.13.57-1.32-.19-.75-.75-1.32-1.51-1.69l-3.39-6.59c-1.69,5.46-1.88,10.92-3.77,16.39-2.45,8.1-4.33,16.01-6.21,23.92l-2.26,9.79c-.57,2.45-.38,6.4-1.7,8.66-2.64,4.9-8.66-2.26-10.55-5.09-5.65-7.53-2.07-16.38,0-24.48,1.69-7.16,3.77-14.13,6.21-21.09,2.07-5.46,2.82-10.92,4.14-16.57,4.14-14.31,9.42-28.44,13.94-42.75,4.33-12.62,8.48-25.43,13.75-38.04.75-2.45,1.88-5.09,3.2-7.72l1.32-3.2c-.19-.19-.38-.56-.38-.75,2.45-4.33,9.61-2.26,12.81.19,6.59,4.52.94,8.66-1.32,13.94-.75,1.88-.38,3.2-.94,5.46-1.13,3.96-3.2,7.91-4.52,11.68-2.07,5.27-3.96,10.55-5.84,16.01l-3.39,8.48c-1.32,3.01-1.88,5.65-2.26,8.85-1.13,5.84-4.52,11.3-6.03,17.14,9.23-7.16,17.7-14.31,25.8-22.6,8.1-8.85,16.95-16.39,24.67-25.8,7.16-9.04,16.57-19.59,19.78-30.7.56-1.88,0-4.14,2.83-3.58,3.96.94,7.16,8.48,7.91,12.05v.38c1.32,8.1-2.83,14.13-8.1,20.34-3.77,4.33-7.16,8.66-11.3,13-2.07,2.07-2.82,4.14-4.52,6.4-1.7,2.26-4.33,4.33-6.4,6.21-4.33,3.77-8.29,8.1-12.62,11.87-3.01,2.45-5.08,5.46-7.91,8.1-8.1,7.35-17.89,14.12-27.87,19.02,4.14,6.78,8.29,13.37,13.37,19.59-1.51-2.26-4.52-6.4-6.4-9.61,6.03,7.91,19.59,24.11,21.09,25.99,4.9,4.52,9.79,8.85,14.5,13.56,3.2,3.2,7.16,7.53,10.55,9.79l-.94-1.13c0-.38,6.97,2.83,7.72,3.2,1.88.57,3.77,1.13,5.65.94,4.9-.56,10.55-4.71,13.37-8.29,1.7-2.07,3.39-4.9,4.14.19Zm-97.75-66.48c-4.33,15.26-9.23,30.7-12.81,45.96,1.7-5.84,4.14-11.68,6.03-17.7,2.26-7.91,3.77-15.82,5.65-23.54,0-.19,0-.38.19-.56l.94-4.14Zm18.65,18.08l.94,1.7c-.56-.94-.94-1.51-.94-1.7Zm1.13,2.07l.75.94-.75-.94Zm13.18,17.89c1.32,1.88,3.01,3.58,4.52,5.27l-3.2-3.96-1.32-1.32Z"/>
        <path class="cls-4" d="m158.98,361.22c-3.2,4.71-6.21,9.23-9.79,13.75-3.77,5.09-8.48,13.18-15.07,14.69-1.51.19-8.66-1.7-8.48-2.83h.38c-1.51-.75,0,.94-2.26-.75-1.7-1.13-2.83-2.83-3.96-4.52-2.07-2.83-4.71-5.27-5.46-8.66-.19-.94-.57-7.72.94-7.72.38,0,0,.94.19.94l.56-3.39c-.19.38-.19.56-.56.75-.75-.19,2.83-13.56,3.2-14.69,1.51-3.96,2.26-8.48,6.03-10.74,2.83-1.88,6.4-1.51,9.98,0,1.51.56,5.84,2.45,5.84,4.33,0,1.13-.94,1.32-1.51,1.88.19-.19.56-.19.75-.19.57.38-2.26,4.33-2.64,4.14-.38,0,.19-.94.38-1.51-3.58,5.84-6.59,12.43-8.85,19.02.94-2.45,5.65-13,6.21-12.81.57.19-12.43,22.79-6.03,25.99,3.01,1.51,8.1-3.2,10.17-4.9,3.58-2.83,8.47-6.4,11.11-9.61-.38.38-.75.38-1.32.38-.75-.94,8.66-13.37,10.36-14.5,1.32-.94,3.96-1.69,4.33.75.75,3.58-2.64,7.72-4.52,10.17Zm-32.02,10.74l-.38,1.51.38-1.13v-.19q.19-.38,0-.19Zm2.45-46.52c-.19-.56-.75-6.4,1.32-5.46,0-.57,2.26-3.39,1.13-.94,1.69-2.26,3.2-4.9,4.52-7.72l-2.26,3.39c1.7-3.39,4.33-10.36,4.52-11.68,0-.19-.38-1.88,0-2.26-3.96-1.51-1.13-3.77.56-5.08-.38,0-.56,0-.75-.38-.75-.75,1.51-1.32,2.07-1.51,2.64-1.13,6.03-.56,8.48.75,2.07,1.32,3.96,4.14,4.71,6.4.75,2.45-1.13,5.27-2.82,6.78-.75.75-2.07,1.32-3.01,2.07-1.13,1.32-.94,3.01-1.88,4.33-.57.94-1.69,1.32-2.26,2.26-.75.56-.75,1.13-.19,1.69-.75.38-1.32.75-1.88,1.32-1.88,3.01-3.01,4.71-5.27,6.4,2.07-1.32,3.39-2.45,5.27-4.9,1.51-1.88,3.2-3.2,5.46-4.14-1.88,2.07-2.26,4.52-4.52,6.03-2.26,1.32-.19-1.32-2.64.94,0,0,1.13-.19.56.19-1.7,1.51-3.39,3.96-5.65,4.9-1.13.38-1.88,1.13-3.2.57-1.32-.75-.75-1.51-1.13-2.07,0,0-1.13-1.7-1.13-1.88Zm1.51-5.46c.19,0,.19.19.19.19q.19-.19.19-.38-.19.19-.38.19Zm3.01-4.9c-.38.75-.75,1.13-.75,1.13l.75-1.13Z"/>
        <path class="cls-4" d="m263.89,362.91c-3.96,4.14-7.72,8.66-11.49,13.18-7.72,9.42-13.75,20.34-21.47,30.13-6.03,7.53-16.01,21.28-25.99,11.11-8.1-7.91-6.03-22.98-5.09-32.96-5.65,5.65-11.68,11.11-18.08,15.82-3.58,2.45-7.72,5.27-12.24,4.33-14.69-3.01-12.62-23.54-8.29-33.52,2.45-5.84,3.39-12.05,6.78-18.08,3.77-6.78,9.23-14.5,16.57-17.52,8.85-3.58,16.95,6.4,22.04,12.24,4.52-16.57,10.73-32.39,17.89-48.03.38-.56,1.7-6.03,3.2-7.16-.75.56-1.7,3.58-2.07,5.08.75-2.07,1.88-4.14,3.01-6.22h-.19c.57-.75,3.01-6.78,3.58-7.53,1.69-2.83,3.58-5.46,5.46-7.91,3.58-4.14,7.91-8.1,13-9.98,6.97-2.64,17.33-1.13,20.15,6.59,3.77,10.55-3.2,22.98-8.29,31.64-3.2,5.27-6.59,10.74-10.17,15.82l-4.9,6.4-1.69,1.88c.19-.38.38-.75.19-.94l-1.51,2.07h.19-.19l-.57.75-8.1,10.92c.94-1.13,2.45-3.01,2.82-2.83,0,0-12.81,16.39-13.94,17.89-4.71,5.84-5.27,15.63-6.4,22.98-.75,4.14-5.84,30.7.75,30.7,1.69,0,3.96-3.2,4.9-4.33,2.82-3.01,5.27-6.21,7.72-9.61,5.08-6.78,9.79-13.56,14.69-20.34,4.9-6.59,9.98-13.18,15.44-19.21,1.13-.94,9.61-11.3,10.74-5.08v.19c.56,4.71-5.46,8.48-8.48,11.49Zm-60.83.19c.75-3.39,2.07-6.59.19-9.6-1.7-2.45-3.2-5.65-5.65-7.35-.94-.75-2.26-1.69-3.58-1.32-.19,0-.38,0-.56.19l.94-.56c-3.96.38-6.97,6.78-9.04,10.74-4.14,7.91-7.72,16.2-10.17,24.86-.75,3.01-4.52,13.75-.19,15.63,2.26,1.13,6.03-1.7,8.29-3.77-2.45,2.07-5.27,3.58-6.97,3.39-6.22-.38-1.69-12.62,1.13-20.15-2.64,7.35-6.59,19.4-1.32,19.96,4.33.38,11.11-7.35,13.94-9.98,3.01-2.83,6.03-5.65,8.85-8.66,3.2-3.2,3.2-7.16,3.96-11.68,0,0,0-.38.19-.94v-.75Zm-18.46,27.5h.19c2.82-2.26,5.65-4.71,8.1-7.16,2.07-1.88,7.91-6.03,8.29-8.48-4.33,4.52-8.85,8.85-13.56,13l-3.01,2.64Zm6.4-43.51c.19,0,.75-.75,1.51-1.32-.57.56-1.13,1.32-1.51,1.32Zm7.91-.94c-.38-.38-.75-.56-1.13-.75l1.13.75Zm20.15-15.44c-.38,1.51-2.26,3.58-2.64,4.71-.75,2.26.19,4.71-1.32,6.59.19,0,.38-.19.38-.38.56-.56,1.7-4.9,2.07-5.84.56-.94,1.51-3.58,1.51-5.08Zm5.27-21.09c-.94,2.45-2.26,5.08-3.39,7.16-1.32,2.64-1.88,5.46-2.83,8.29,1.13-2.07,2.07-4.14,2.83-6.4.94-2.83,2.45-6.03,3.39-9.04Zm8.85,11.3l-.56.94c-.19.75-.38,1.13-.19.94-2.83,8.1-5.46,16.2-7.91,24.3.19-.38.57-.75.94-1.13-.94,1.32-1.88,2.45-2.07,3.58l.75-.75,1.32-1.7,9.6-12.43-3.77,4.71-4.14,4.33c7.72-9.61,15.07-19.96,21.66-30.51,5.65-9.04,14.69-22.41,13.94-33.71,0-1.69-.38-4.14-2.07-5.08-4.33-2.45-9.23,6.21-10.92,9.04-6.78,10.92-11.49,22.98-15.82,35.03v.19s-.19.19-.38.75v.19c-.19.19-.19.56-.19.75-.19.19-.19.38-.19.56Zm-.56.94c0,.38-.19.75-.19.94l.75-1.88-.56.94Zm2.83,19.59c-.19.19-.38.38-.38.56,0,0,.19-.19.38-.56Zm.19-.38l-.19.38s.19-.19.19-.38Z"/>
        <path class="cls-4" d="m378.77,350.11c-1.51,5.08-6.21,6.78-9.6,9.79-2.64,2.45-6.4,5.08-9.42,7.16-2.45,1.7-5.09,1.13-6.97,3.01-.19,0-.19-.19-.19-.19-.57.56-1.13,1.51-2.45,2.26-1.7,1.13-2.45,2.26-3.96,3.39-2.64,1.88-4.52,1.13-6.4,2.07h.19c-1.32.56-9.98,10.92-10.74,12.05-3.01,3.39-6.21,6.4-9.04,9.6-2.45,2.64-7.53,8.85-11.68,8.85-4.52,0-8.66-8.29-9.79-11.87-1.7-5.08.75-3.39,3.96-4.14,4.52-1.13,8.47-6.78,11.49-9.98,3.96-4.33,7.53-9.04,11.49-13.56,1.51-1.51,3.01-3.01,4.14-4.9.19-.56,1.13-3.77,1.88-3.77,0,0-.19.75-.56,1.32l1.13-1.69c-.56.38.94-3.2,1.13-3.39.94-2.07,2.07-3.96,3.2-6.03,2.07-3.77,4.52-7.91,5.46-12.24.57-2.07,2.07-9.98-2.07-9.23-1.51.19-10.17,6.97-10.55,6.78-.19-.19,1.13-1.32.94-1.51-1.51,1.51-3.2,3.2-4.71,5.08.38-.38.75-.56,1.13-.75-1.51,1.32-16.57,22.41-17.89,24.3-3.01,4.14-5.46,8.66-8.29,13.18-1.51,2.26-2.83,5.09-4.71,7.16-.94.75-2.07,1.13-2.64,1.88-2.07,2.83-3.77,7.16-5.65,10.55-2.45,4.14-4.71,8.66-7.34,12.81-2.26,4.14-3.39,8.48-4.9,13-1.13,3.2-2.45,6.03-3.39,9.04.19-.57.56-1.13.94-1.51.56-.19-.94,6.78-1.13,7.16l-1.69,8.66c-1.32,6.21-2.26,12.62-3.39,18.83-.19,2.26-.19,6.59-2.07,8.48-4.14,3.96-9.42-2.64-11.11-5.84-4.9-9.04-.38-23.73,1.13-33.52.94-6.4,2.26-13,4.71-19.02.94-1.88,1.88-3.39,2.64-5.46,0-.19.38-4.14.94-4.33,0,.19.19.38.19.56,0-.38.19-.75.38-1.32-.94,1.7,0-2.83,0-3.01.57-2.07,1.32-3.96,1.88-5.84,1.32-3.58,2.26-6.97,3.01-10.55.38-1.51,5.08-17.33,6.97-16.95.38,0-.38,1.32-.19,1.51.75-1.7,1.32-3.39,1.88-5.09-.19.38-.38.75-.75.94,0,0,6.97-19.59,7.72-21.66,1.51-3.77,2.45-7.53,3.77-11.49.19-.75,1.13-2.45,1.13-3.39,0-.75-.94-1.13-.94-1.88-.38-4.9,2.64-9.98,8.85-8.29,3.2.75,5.46,3.39,6.78,6.22,1.7,3.2.75,4.52.19,7.35l.57-.94c.75,0-.75,7.91-1.88,7.72-.19,0,.57-2.82.57-3.39-1.51,5.27-3.2,10.36-4.9,15.44v-.19l-1.13,3.2c-.19.56-.38,1.32-.75,1.88-4.52,13.18-11.68,35.6-12.43,38.42,1.51-3.01,3.2-6.03,4.9-8.85-1.7,2.45-3.01,4.33-3.01,4.33,0,0,18.83-30.51,20.72-33.34,6.78-10.17,13.56-20.72,21.28-30.51,3.39-4.14,9.23-11.87,15.44-11.49,10.17.75,12.62,12.24,12.43,19.78.19-.94.38-2.64.75-2.45,2.83,1.51-1.51,15.44-2.26,17.7-2.07,6.21-5.27,12.43-8.66,18.27,3.77-2.07,7.16-4.52,10.74-6.97,3.2-2.07,7.34-2.26,10.55-3.58-.19,0-.57-.19-.57-.38-.57-1.51,9.23-4.52,10.36-4.71.57-.38,1.51-.38,2.26-.56Zm-119.97,80.99q-.19.19-.19.38.19-.19.19-.38Zm21.09-61.59c.38,1.51-3.2,9.04-3.58,9.98-3.01,7.72-6.78,15.44-9.23,23.35-2.64,8.66-6.03,17.7-8.1,26.93,1.7-6.59,3.96-13.18,6.4-19.21,3.01-7.16,5.84-14.69,8.29-22.22,1.13-3.58,2.26-7.16,3.58-10.74.94-2.26,2.64-5.09,2.82-7.53v-.19s0-.19-.19-.38Zm6.59,12.24c.75-1.88,1.32-3.96,1.88-6.21-.75,2.07-1.32,4.33-1.88,6.21Zm2.82-8.29s.19,0,.19-.19l-.19.19Zm8.85-24.11c.19-.19.38-.38.38-.75l-.38.75Zm1.13-2.45l-.75,1.7.75-1.7Zm0,0c.19-.75.38-1.32.56-1.51l-.56,1.51Zm9.23,5.84q0,.19-.19.38v.19c.19-.38.38-.75.19-.56Zm2.07-2.83l3.58-5.27c-1.32,1.69-2.45,3.58-3.58,5.27Zm35.97,16.39c-.57.38-1.51.57-1.7,1.13l1.7-1.13Z"/>
        <path class="cls-4" d="m450.91,359.71c-1.51,3.2-3.39,6.22-5.46,9.23-4.33,6.4-9.04,12.81-13.56,19.21-4.52,6.21-9.42,12.43-15.44,17.52-1.13.75-9.79,7.72-10.36,7.53,0-.19.19-.38.38-.56l-1.32.56c.94-.19-2.64,2.26-3.58,2.64-2.64.57-5.46-.19-7.72-1.69-2.45-1.51-3.77-3.77-4.9-6.4-1.88-4.14-2.07-8.1-1.32-12.62.19-.94,2.83-11.87,4.14-11.68.38,0-.38,1.51-.19,1.69l1.32-4.71c-.56-.19,9.42-21.28,10.36-22.6-5.65,1.13-12.81.94-16.76-3.96-1.13-1.51-.75-2.83-1.13-3.96-.56-1.51-1.32-2.26-1.7-3.58-1.88-9.23,8.85-22.04,17.89-15.82l-.38-.56c.19-1.13,2.45,1.69,2.64,2.64,0,.75-1.51,6.03-2.45,5.65-.19,0,1.13-3.39,1.13-3.58-1.32,3.58-5.27,7.53-5.65,11.3-.38,2.83,1.13,2.83,3.58,3.39,3.58.94,9.23.38,13.75,1.69-3.01-.94-6.59-1.13-9.04-1.51,0,0-.19,0-.19-.19,2.82.38,5.84.38,8.29.94,5.46,1.32,8.85,3.39,6.59,9.23-2.26,5.46-5.09,10.92-7.53,16.39-2.26,5.27-4.14,10.92-6.22,16.39-.56,1.88-4.71,9.79-3.2,11.68,1.88,2.26,12.24-7.16,15.07-10.17-.57.56-1.13.56-1.51.94-.38,0,3.77-5.27,4.33-6.03l5.46-6.97,10.17-13.37,10.36-13.94c.94-1.13,5.46-7.72,6.59-2.83.57,2.64-1.32,5.84-2.45,8.1Zm-58.38,50.85c-.19-.19-.38-.38-.38-.56l.19.19c-.94-2.07-1.88-4.14-2.26-5.27l.56,2.45-.75-3.96v-.19c-.19-.38-.19-.57-.19-.57,0,0,0,.19.19.38v-.94c-.19-2.64,0-5.08.38-7.53v-.19c-.38,1.7-.56,3.2-.56,5.09-.19,2.26,0,4.9.56,7.16.19.57,1.7,3.77,2.83,5.27,0-.19,0-.38-.19-.38,1.13,1.13,2.64,2.07,4.33,2.64-2.07-.75-3.58-2.26-4.71-3.77v.19Zm-2.26-16.38v.19c0-.19.19-.38.19-.56,0,.19-.19.19-.19.38Zm.57-3.58c0,.38-.19.56-.19.75,0-.19.19-.38.19-.75Zm.38,0c1.32-4.9,3.39-9.61,5.27-14.13l3.58-8.29c.94-1.7,4.9-10.92,5.84-11.49-1.32.38-3.96,7.16-4.33,7.72-1.7,3.2-3.2,6.4-4.52,9.79-2.26,5.27-4.52,10.74-5.84,16.39Zm.38,18.46c0-.19-.19-.38-.19-.38,0,.19.19.19.19.38Zm5.46-62.53s0-.19.19-.19l-.19.19Zm0,.19c.19.38,1.32,1.32,1.32,1.32.94.75,2.26,1.13,3.77,1.32-1.69-.19-3.39-.38-4.33-1.13-.38-.19-.75-1.13-.75-1.51Zm20.53,16.01l-3.96,8.48,3.96-8.29v-.19Zm0-.19h.19v-.19l-.19.19Zm0,0h.19v-.19l-.19.19Z"/>
        <path class="cls-4" d="m522.48,354.44l-5.84,7.72-10.17,13.18c-2.64,3.39-5.84,6.59-8.47,9.98-2.83,3.77-5.27,7.72-8.48,11.3-3.39,3.58-7.34,7.34-11.87,9.79-3.2,1.7-6.21,1.88-9.6.94-4.9-1.32-9.23-4.33-12.43-8.1-.94-1.13-1.88-2.07-2.07-3.58-.19-1.13-.38-2.45-.38-3.77-.19-2.26.57-3.95.94-6.21.38-2.45,1.51-4.71,1.88-7.16.38-2.64,1.13-5.08,1.51-7.53.19-2.26-.19-4.71.38-6.97.38-1.51,1.51-3.01,2.07-4.71-.56,1.13-1.51,2.26-1.7,3.2-.56,1.51-.94,3.01-1.51,4.33-.57,1.51-.75,2.82-1.32,4.33-.75,1.7-1.51,3.2-1.7,5.09-.19,1.69,0,3.39-.19,5.08-.38,1.69-.75,3.01-.75,4.71,0,.56.38,1.69.38,2.07,0,.75-.38,1.69-.38,2.64,0,1.69.38,3.39.57,5.27-3.01-5.27-2.45-10.55-1.51-16.2.94-5.65,1.69-11.11,3.01-16.57,2.45-11.11,7.53-22.04,14.69-30.89,5.84-7.72,13.56-13.56,23.73-11.68,3.77.75,7.91,2.45,10.36,5.65,2.64,3.58,2.45,8.1,1.13,12.24-2.45,7.35-8.66,13.18-14.5,18.08-2.45,2.07-5.08,4.14-7.91,5.84-1.88,1.13-3.96,1.88-6.03,2.64l-3.2,1.13c-1.32.38-1.51.19-2.07,1.32-.94,1.88-.38,3.77-.75,5.65-.38,2.45-.94,4.71-1.51,7.16-.94,4.52-2.45,10.36-1.32,15.07,2.07,9.6,17.89-5.27,20.72-7.91,1.88-1.7,3.58-3.58,5.27-5.27.94-1.13,2.07-2.07,2.83-3.2,0,0,.38-.94.38-1.32,2.26-3.58,5.27-6.97,8.1-10.36,3.39-3.96,6.4-8.1,9.61-12.43,1.7-2.45,5.65-9.42,8.66-4.33v.19q.19.19.19,0c.75,1.51.19,2.45-.75,3.58Zm-48.4,4.52c6.03-3.2,11.49-7.53,15.82-12.62l3.2-4.14c.57-.94,1.51-1.51,1.88-2.64.19-.94-.19-1.69,0-2.82l.75-3.96c.19-1.88-.57-6.78-3.39-6.21-1.32.38-2.64,2.07-3.39,3.01l-3.39,4.52c-3.96,5.84-6.03,12.24-8.85,18.27,0,0,0,.19-.19.56-.94,1.88-1.51,3.96-2.45,6.03Z"/>
        <path class="cls-4" d="m590.47,366.49c-4.14,5.27-7.91,10.92-12.43,15.82-3.39,3.58-9.04,9.6-14.31,7.91-1.13-.38-8.1-4.14-7.91-5.09l.56.38-1.13-1.13c.94,1.51-1.13-.38-1.32-.38-.94-.94-1.7-2.45-2.26-3.58-.94-2.07-1.13-4.14-1.13-6.21s.38-4.14.56-6.22c.38-4.33.57-8.1,1.88-12.24.38-.94,4.33-11.49,5.65-11.11.38,0-.57,1.32-.38,1.51l2.64-5.27c-.38.38-.57.75-.94.94-.19-.19,2.26-4.52,2.83-5.46-3.77,4.33-6.78,8.85-10.17,13.37-2.45,3.2-5.46,5.27-7.16,8.29-3.96,6.78-8.85,13-12.05,19.96l-.75-1.51c-3.39,4.14-8.47-.75-10.36-3.96-1.69-3.01-1.13-5.27-.75-8.66.38-3.01.19-6.03,1.13-9.23,1.13-3.96,2.64-7.72,4.14-11.68,1.32-3.96,2.64-7.91,4.14-11.87.94-2.45,2.83-5.46,3.39-8.1.56-2.07,0-3.39,2.45-4.9,2.26-1.32,4.71-1.13,7.16-.75,3.01.56,8.47,3.77,5.27,8.48-1.32,1.69-3.58,3.58-5.08,5.46-1.7,2.07-1.51,3.01-2.26,5.46-.38,1.51-1.88,2.82-2.64,4.33-1.13,2.07-1.88,4.71-2.64,7.16-.38,1.51-.19,2.64-.38,4.14-.38,3.96-1.69,7.91-2.07,11.87.19-.75,1.51-2.07,1.69-1.88.19.19-1.88,3.39-1.69,3.39l11.11-16.2c-2.45,3.2-4.33,5.46-4.33,5.46-.56-.38,21.85-29,24.48-31.45,5.46-5.08,12.43-4.9,15.07,3.96,3.01,9.42-6.78,15.63-11.3,22.41-2.45,3.77-4.52,8.29-6.4,12.24-1.32,2.45-4.14,7.91-4.52,12.05.38-2.83,2.45-6.22,3.2-8.1,1.51-3.96,3.58-7.16,6.59-9.98-1.32,2.45-2.83,4.71-3.96,6.97l.94-1.13c.38,0-1.7,6.4-1.88,6.78-.75,2.26-1.51,4.71-1.7,7.16-.19.19,0,3.2,0,3.2l.19.19c0-.19,1.32-.38,1.69-.56,2.83-.94,5.65-3.58,7.91-5.46,4.52-3.58,8.85-7.53,13.18-11.3,3.2-3.01,7.35-6.03,9.98-9.23,1.13-1.7,3.77-4.71,4.71-.19.75,4.52-6.4,10.92-8.66,13.94Z"/>
        <path class="cls-4" d="m668.25,354.44l-5.84,7.72-10.17,13.18c-2.64,3.39-5.84,6.59-8.48,9.98-2.82,3.77-5.27,7.72-8.47,11.3-3.39,3.58-7.35,7.34-11.87,9.79-3.2,1.7-6.21,1.88-9.61.94-4.9-1.32-9.23-4.33-12.43-8.1-.94-1.13-1.88-2.07-2.07-3.58-.19-1.13-.38-2.45-.38-3.77-.19-2.26.56-3.95.94-6.21.38-2.45,1.51-4.71,1.88-7.16.38-2.64,1.13-5.08,1.51-7.53.19-2.26-.19-4.71.38-6.97.38-1.51,1.51-3.01,2.07-4.71-.57,1.13-1.51,2.26-1.7,3.2-.57,1.51-.94,3.01-1.51,4.33-.56,1.51-.75,2.82-1.32,4.33-.75,1.7-1.51,3.2-1.7,5.09-.19,1.69,0,3.39-.19,5.08-.38,1.69-.75,3.01-.75,4.71,0,.56.38,1.69.38,2.07,0,.75-.38,1.69-.38,2.64,0,1.69.38,3.39.57,5.27-3.01-5.27-2.45-10.55-1.51-16.2.94-5.65,1.7-11.11,3.01-16.57,2.45-11.11,7.53-22.04,14.69-30.89,5.84-7.72,13.56-13.56,23.73-11.68,3.77.75,7.91,2.45,10.36,5.65,2.64,3.58,2.45,8.1,1.13,12.24-2.45,7.35-8.66,13.18-14.5,18.08-2.45,2.07-5.09,4.14-7.91,5.84-1.88,1.13-3.96,1.88-6.03,2.64l-3.2,1.13c-1.32.38-1.51.19-2.07,1.32-.94,1.88-.38,3.77-.75,5.65-.38,2.45-.94,4.71-1.51,7.16-.94,4.52-2.45,10.36-1.32,15.07,2.07,9.6,17.89-5.27,20.72-7.91,1.88-1.7,3.58-3.58,5.27-5.27.94-1.13,2.07-2.07,2.82-3.2,0,0,.38-.94.38-1.32,2.26-3.58,5.27-6.97,8.1-10.36,3.39-3.96,6.4-8.1,9.61-12.43,1.69-2.45,5.65-9.42,8.66-4.33v.19q.19.19.19,0c.75,1.51.19,2.45-.75,3.58Zm-48.4,4.52c6.03-3.2,11.49-7.53,15.82-12.62l3.2-4.14c.56-.94,1.51-1.51,1.88-2.64.19-.94-.19-1.69,0-2.82l.75-3.96c.19-1.88-.56-6.78-3.39-6.21-1.32.38-2.64,2.07-3.39,3.01l-3.39,4.52c-3.96,5.84-6.03,12.24-8.85,18.27,0,0,0,.19-.19.56-.94,1.88-1.51,3.96-2.45,6.03Z"/>
        <path class="cls-4" d="m751.87,359.71c-2.64,4.52-6.21,8.66-9.79,12.62-5.46,5.84-13.37,15.44-22.22,16.01-4.14.38-8.47-1.7-10.73-5.46-3.96-7.16.19-16.2,2.64-22.79-4.9,5.84-9.61,11.68-14.31,17.7-1.32,1.7-15.63,16.2-17.52,13.75,0-.19,1.7-.94,1.51-1.13-1.88,1.13-3.96,2.07-6.03,2.07.19.19.56.19.94.19.38,1.32-5.09-.75-5.65-1.13-2.07-1.88-3.01-4.9-3.58-7.53-.94-6.03,0-12.05,1.51-17.89,1.51-6.03,3.01-11.87,5.65-17.7,1.32-3.01,3.58-4.52,4.9-7.16,2.07-4.71,4.71-10.74,8.85-14.13,3.39-3.01,9.42-2.45,12.81.19,3.39,2.64,1.51,3.96,0,6.59.38-.56.75-.94,1.13-1.13.38,0-4.14,9.23-5.08,9.04,0,0,.56-1.88,1.13-3.01-2.45,4.33-4.71,8.85-6.78,13.37.38-.57.75-.75,1.13-.75-.38-.19-7.16,17.33-7.72,18.83-.75,2.83-4.14,11.11.94,9.42,5.46-1.51,10.74-9.04,14.12-13,4.52-5.09,8.29-10.55,12.24-16.2,4.14-6.22,9.04-16.57,18.65-13.94,8.47,2.45,2.07,11.49-.57,16.76.38-.38.75-.94.94-.75,1.13,1.32-2.64,8.48-3.2,10.36-1.13,3.58-2.64,7.72-2.82,11.68-.19,4.52,1.13,3.2,4.14.94,6.4-5.09,11.68-11.49,17.14-17.33.38-.38,9.04-10.36,9.61-6.78.19,2.26-2.82,6.4-3.96,8.29Zm-64.6,1.7c-2.07,5.08-6.03,12.62-4.9,18.08-.38-1.7,2.26-10.74,4.9-18.08Zm25.24-2.07c-.57.38-.75.94-.75,1.69.19-.56.38-1.13.75-1.69Zm19.4-16.01c-1.88,4.71-7.53,10.74-6.03,15.44,0,.19,0,.38-.19.56.19-.19.38-.38.38-.56.57-.94.75-2.45,1.13-3.58,1.32-3.96,3.2-7.72,4.71-11.87Z"/>
        <path class="cls-4" d="m828.15,359.71c-1.51,3.2-3.39,6.22-5.46,9.23-4.33,6.4-9.04,12.81-13.56,19.21-4.52,6.21-9.42,12.43-15.44,17.52-1.13.75-9.79,7.72-10.36,7.53,0-.19.19-.38.38-.56l-1.32.56c.94-.19-2.64,2.26-3.58,2.64-2.64.57-5.46-.19-7.72-1.69-2.45-1.51-3.77-3.77-4.9-6.4-1.88-4.14-2.07-8.1-1.32-12.62.19-.94,2.83-11.87,4.14-11.68.38,0-.38,1.51-.19,1.69l1.32-4.71c-.56-.19,9.42-21.28,10.36-22.6-5.65,1.13-12.81.94-16.76-3.96-1.13-1.51-.75-2.83-1.13-3.96-.57-1.51-1.32-2.26-1.7-3.58-1.88-9.23,8.85-22.04,17.89-15.82l-.38-.56c.19-1.13,2.45,1.69,2.64,2.64,0,.75-1.51,6.03-2.45,5.65-.19,0,1.13-3.39,1.13-3.58-1.32,3.58-5.27,7.53-5.65,11.3-.38,2.83,1.13,2.83,3.58,3.39,3.58.94,9.23.38,13.75,1.69-3.01-.94-6.59-1.13-9.04-1.51,0,0-.19,0-.19-.19,2.83.38,5.84.38,8.29.94,5.46,1.32,8.85,3.39,6.59,9.23-2.26,5.46-5.08,10.92-7.53,16.39-2.26,5.27-4.14,10.92-6.21,16.39-.56,1.88-4.71,9.79-3.2,11.68,1.88,2.26,12.24-7.16,15.07-10.17-.56.56-1.13.56-1.51.94-.38,0,3.77-5.27,4.33-6.03l5.46-6.97,10.17-13.37,10.36-13.94c.94-1.13,5.46-7.72,6.59-2.83.56,2.64-1.32,5.84-2.45,8.1Zm-58.38,50.85c-.19-.19-.38-.38-.38-.56l.19.19c-.94-2.07-1.88-4.14-2.26-5.27l.57,2.45-.75-3.96v-.19c-.19-.38-.19-.57-.19-.57,0,0,0,.19.19.38v-.94c-.19-2.64,0-5.08.38-7.53v-.19c-.38,1.7-.56,3.2-.56,5.09-.19,2.26,0,4.9.56,7.16.19.57,1.7,3.77,2.83,5.27,0-.19,0-.38-.19-.38,1.13,1.13,2.64,2.07,4.33,2.64-2.07-.75-3.58-2.26-4.71-3.77v.19Zm-2.26-16.38v.19c0-.19.19-.38.19-.56,0,.19-.19.19-.19.38Zm.56-3.58c0,.38-.19.56-.19.75,0-.19.19-.38.19-.75Zm.38,0c1.32-4.9,3.39-9.61,5.27-14.13l3.58-8.29c.94-1.7,4.9-10.92,5.84-11.49-1.32.38-3.96,7.16-4.33,7.72-1.7,3.2-3.2,6.4-4.52,9.79-2.26,5.27-4.52,10.74-5.84,16.39Zm.38,18.46c0-.19-.19-.38-.19-.38,0,.19.19.19.19.38Zm5.46-62.53s0-.19.19-.19l-.19.19Zm0,.19c.19.38,1.32,1.32,1.32,1.32.94.75,2.26,1.13,3.77,1.32-1.7-.19-3.39-.38-4.33-1.13-.38-.19-.75-1.13-.75-1.51Zm20.53,16.01l-3.96,8.48,3.96-8.29v-.19Zm0-.19h.19v-.19l-.19.19Zm0,0h.19v-.19l-.19.19Z"/>
        <path class="cls-4" d="m903.11,353.31c.75,6.03-8.66,10.92-12.62,13.75-5.46,3.96-10.92,7.72-16.95,10.92-1.51.75-3.77,1.51-5.27,2.64-2.07,1.69-1.69,1.51-1.32,4.52.57,3.39.94,6.78.94,10.36.19,5.27-.38,10.55-2.26,15.63-4.52,11.68-13.56,19.21-26.55,18.83-11.49-.19-23.73-6.21-21.28-18.65-.19.38-.75,3.58-.94,3.39-1.32-.75,0-4.9.38-5.84,2.26-6.97,8.29-12.43,13.94-16.76,3.2-2.45,6.4-4.9,9.6-6.97,2.45-1.51,8.1-3.77,8.48-6.4.56-2.64-1.88-8.29-2.64-11.11-.75-3.58-2.07-7.35-2.45-11.11-.19-2.45.57-3.96,0-6.22-.94-3.01-1.88-5.84-2.07-9.04s-.19-6.4.94-9.42c1.51-4.52,11.49-14.88,16.57-10.17,0-.94,2.45,2.64,2.64,3.77,0,.75-.75,7.72-1.88,7.53,0,0,.38-1.69.57-3.01-.94,2.64-2.45,5.08-2.64,7.91-.38,2.45.19,5.27.57,7.53,0-.38,0-.75.38-.94-.19,0,1.88,9.79,3.58,17.7-1.32-5.09-3.01-11.11-3.77-14.69,1.51,8.29,3.39,16.39,5.27,24.48.19-.19.38-.56.19-1.51.19.56.38.94.38,1.13,8.29-4.14,16.01-8.1,23.73-13,3.39-2.26,6.97-6.03,10.55-7.72,1.88-.75,3.39-.38,3.96,2.26v.19Zm-67.8,64.41l5.27-2.07c.19.19-1.51,1.32-1.51,1.51,2.26-1.32,4.14-3.01,5.84-5.08l-.94.75c1.51-1.51,5.08-9.04,5.27-9.79,1.32-4.52,1.32-9.04,1.13-13.56-.38.38-.94.56-1.32.75l1.32-1.13-2.26,1.32c1.13-.38-2.45,2.45-3.01,2.82l-5.65,3.77c-3.77,2.64-7.91,5.46-10.74,9.23-1.7,2.45-6.59,10.17-1.7,11.68,2.64.94,5.65.38,8.29-.19Zm25.05-3.96c-5.46,7.72-15.07,12.24-24.29,12.81,5.08-.19,9.79-1.13,14.69-3.2,4.9-2.26,7.53-5.46,9.6-9.61Zm3.01-49.16c.57,2.07.94,3.96,1.13,5.27-.38-1.13-.75-3.2-1.13-5.27Zm3.39,23.92c0,.38,0,.75.19.94,0-.19-.19-.56-.19-.94Z"/>
        <path class="cls-4" d="m1073.93,349.17c1.32,6.59,0,14.13-2.07,20.53-7.16,22.22-27.69,37.86-48.4,47.08-8.66,3.96-18.46,7.34-27.87,9.23-5.84,1.13-11.49,1.51-17.14.38-3.01-.38-11.11-1.13-13-3.77-1.88-2.26.19-2.07,2.45-2.45,5.46-.94,10.73-1.7,15.82-3.39,12.05-3.58,23.54-9.04,34.09-15.44,9.98-6.03,19.4-12.99,27.12-21.66,3.58-4.14,6.97-8.66,9.23-13.56,1.13-2.45,3.39-9.98,2.26-11.11-.38-.19-1.13-3.77-1.13-5.84.19,1.32.94,2.64,1.13,3.58-.19-2.07-.57-4.14-1.51-6.22v.56c-.56-.94-2.82-3.58-3.01-3.58-1.7-1.69-3.77-2.45-6.03-2.82-4.71-.56-7.72,1.88-11.87,3.01-4.9,1.32-18.64-7.53-13.18-11.87,2.45-1.88,6.4-2.83,9.23-4.52,4.71-3.39,9.23-6.97,13.37-11.11,4.52-4.33,8.47-9.23,12.24-14.31.94-1.32,6.97-11.68,7.91-11.49,0,0-1.51,3.39-1.51,3.58,2.07-3.96,4.14-7.91,5.65-12.05v-.19l.19-.19.19-.56c2.45-5.65,4.9-17.14-.19-18.46-3.39-.94-7.35,3.96-9.42,6.03-10.73,10.55-19.96,23.17-28.06,35.78-4.71,7.16-9.04,14.31-13.37,21.66-2.64,4.33-6.21,7.91-8.1,12.43-5.84,13.75-12.05,26.93-16.57,41.25-2.26,7.35-3.77,14.69-5.08,22.22l-.56-1.13c-5.28,5.65-13,1.69-15.45-4.33-2.82-6.21-1.32-15.26-1.13-21.85.38-7.91.75-16.01,2.64-23.73.75-3.2,1.88-6.03,3.01-9.04.19-.75.75-6.59,1.32-6.78,0,.19,0,.38.19.56,0-.38.19-.75.19-1.32-.75,1.88-.19-3.01,0-3.2.38-2.07,1.13-4.14,1.7-6.03,1.13-3.77,2.07-7.16,2.64-10.92.38-1.32,5.09-18.08,6.97-17.7.38.19-.38,1.32-.19,1.51l1.32-4.14c-.56-.19,8.47-20.15,9.23-21.85,3.39-6.21,5.84-12.43,11.3-16.95,3.39-2.64,7.53-10.74,13.75-8.48,2.82,1.13,5.65,5.27,5.84,8.29,0,2.26-1.13,2.64-2.26,3.96.19-.19.56-.38.94-.38.38.19-4.52,6.59-5.08,6.4-.19,0,.56-1.32,1.13-2.26-6.78,9.23-12.05,19.4-16.57,29.95,1.88-3.96,9.6-19.96,10.92-20.53-.94.56-9.79,19.78-10.73,21.47-3.2,7.53-6.03,15.07-8.29,22.98-2.07,7.53-3.58,15.07-5.65,22.6-1.7,6.03-4.14,12.81-5.08,18.83.19-.38.38-.75.75-1.13.19-.19-.75,8.85-.75,9.42l-.75,7.16c8.1-27.5,21.66-53.49,37.67-77.03-6.03,8.66-11.68,17.7-16.95,26.93-2.45,4.71-4.9,9.42-7.16,14.13-1.7,3.39-5.27,8.85-5.84,12.24.38-3.2,3.01-6.97,4.33-9.79,1.51-3.58,3.2-6.97,5.09-10.36,3.2-6.22,6.59-12.43,10.17-18.46,7.91-12.62,16.57-25.05,25.99-36.54,4.52-5.65,9.42-11.11,14.5-16.2,3.96-3.77,9.42-9.79,15.07-10.74,10.55-1.7,17.14,9.23,18.08,18.27,3.39,27.12-20.15,54.99-43.88,65.35,12.62-1.13,25.43,4.71,28.25,18.08Zm-93.23.56c.19-1.13.19-2.26.19-3.2-.94,1.88-2.26,3.96-2.82,5.65-1.13,3.96-1.7,9.6-1.32,13.75-.19-2.83.38-6.97,1.51-9.61.94-2.07,2.07-4.14,2.45-6.59Zm24.48-50.1c-.19.38-.38.75-.38,1.13l.38-1.13Zm3.01-7.16c-.19.19-.38.56-.38.75l.38-.75Zm49.53,74.39l-.94,2.26c-3.2,6.59-6.78,11.68-11.49,17.14l-6.4,6.78c2.26-1.69,5.08-2.82,7.72-5.08,2.83-2.45,6.03-6.22,7.35-9.79,1.32-3.01,3.39-8.1,3.77-11.3Zm-18.08-89.08l1.32-1.32-1.32,1.32Zm30.51,30.7c1.7-1.88,3.2-3.77,4.9-5.46,4.71-5.27,6.97-10.36,8.85-16.57-1.88,4.14-4.71,8.29-6.59,11.49-2.07,3.77-4.52,7.16-7.16,10.55Z"/>
        <path class="cls-4" d="m1187.88,364.23c-2.45,5.65-5.27,10.73-8.29,15.82-3.58,5.65-7.16,11.11-11.3,16.01-3.39,4.33-8.1,9.79-13.75,10.74-6.4,1.13-11.49-4.14-13.56-9.79-4.52-11.11-1.32-22.79,2.07-33.52,0,0,0-1.7.19-3.01-1.88,2.83-4.52,6.22-6.22,8.85-2.26,3.58-3.96,7.16-6.4,10.55-1.13,1.7-16.57,20.34-18.65,17.14,0,0,2.26-.94,2.07-1.32-2.26,1.51-5.27,1.88-7.91,1.13.56.38.94.56.75.56-4.33.57-7.72-6.21-8.66-9.23-1.51-5.27-1.13-11.11-.19-16.39,2.07-10.92,6.59-22.79,13-32.21,1.7-2.26,3.39-4.9,5.84-6.59,1.51-1.32,2.83-1.51,4.52-2.64,2.82-2.45,5.27-4.52,9.42-4.52,9.23,0,13,10.55,14.88,17.7,4.52-5.84,12.62-13.56,19.59-5.08,3.77,4.52,1.32,7.91-.75,12.05-3.58,6.59-6.4,14.69-7.91,21.47.19-.56.75-3.39,1.51-3.58,1.51-.38-12.05,42.19,7.34,18.27,5.84-7.35,10.92-15.07,16.01-22.79,2.26-3.58,4.52-7.35,6.97-10.92,1.13-1.51,4.52-5.08,4.71-.94.38,4.33-3.77,8.66-5.27,12.24Zm-47.84-13.94c0-1.51-3.77-11.87-2.82-12.62.19-.19,1.88,5.27,2.07,5.65-.57-2.26-1.32-9.23-4.71-9.23-6.21,0-10.92,11.49-13,15.82-3.77,8.48-7.16,17.52-8.66,26.74.57-2.83,11.49-36.91,14.88-36.73-2.64.56-12.62,29.57-13.18,32.21-.38,1.51-3.39,11.3-.56,12.24,1.88.57,6.4-5.27,7.35-6.59,3.58-4.33,6.97-8.85,10.17-13.56l4.9-6.97c.75-1.32,1.7-2.64,2.64-3.96q.94-1.51.94-3.01Zm.57-1.32v1.88c.56-.56.56-1.13,0-1.88Zm4.52,9.04l-.94,1.32c-.19.56-.75,3.2-.75,3.2l1.7-4.52Z"/>
        <path class="cls-4" d="m1252.66,368.56l16.38-12.24c1.51-1.13,9.98-9.79,12.05-5.84.75,2.26-1.7,4.9-3.2,6.4-4.52,4.71-9.79,8.66-14.88,12.81-2.26,1.88-5.27,3.77-7.16,5.84-1.51,1.69-1.32,1.88-1.32,4.14,0,1.7,0,3.39-.19,4.9-.56,5.46-2.26,10.55-4.52,15.44-9.23,19.96-25.24,39.74-45.96,48.21,8.85-5.08,18.64-11.3,25.24-19.4,4.33-5.27,8.29-10.92,10.74-17.33,1.88-4.9,4.52-10.17,6.21-15.26-1.88,5.46-5.46,11.3-8.29,16.2-3.39,5.84-7.72,11.11-11.87,16.57-5.46,7.53-13.37,13.18-21.09,18.08-8.1,5.27-19.21,6.03-28.63,4.9-3.01-.38-6.22-1.13-9.04-2.26-3.01-1.32-5.84-3.01-7.53-5.84-1.32-2.07-1.13-5.84-1.32-6.59,0-1.13,0-2.07.19-3.01-.38.94-.75,2.07-.94,2.07-2.45-2.45,3.58-11.68,5.09-13.94,4.9-6.4,12.62-10.74,19.4-14.69,17.33-10.36,35.97-17.89,53.11-28.06,3.39-2.07,5.27-2.64,4.9-6.59-.38-2.83-1.51-6.78-3.58-8.85-4.14-3.96-11.3-1.13-15.63.94-3.58,1.88-7.91,5.84-11.68,6.78-3.01.56-5.46-1.51-6.21-4.33-.57-1.88.38-3.58,1.51-4.9v-.19c-.94-.38,5.65-4.14,5.84-4.14,2.83-1.32,4.71-2.45,7.16-4.52,2.64-2.26,5.46-3.77,8.47-5.65.19,0,3.01-2.26,3.77-3.01.56-.75.56-1.13,1.88-2.64,1.7-1.7,3.96-3.01,5.65-4.71,3.01-3.01,5.46-6.78,8.47-9.98l-2.26.94h.56c.38.75-16.57,5.09-17.89,5.27-2.64.57-6.59,1.7-9.23.57-1.51-.57-1.88-1.51-3.01-2.26-1.13-.75-2.45-.38-3.58-2.07-1.13-2.07-.56-4.52.57-6.4.94-1.51,3.2-4.14,5.08-4.52,1.13-.19,1.7.19,2.45.19v-.19c-.19-.75,5.46-1.51,5.46-.94,0,.19-.56.56-1.32.75,3.96-.56,7.72-1.13,11.68-1.32-2.26,0-4.71,0-4.71-.19,0-.38,22.04-1.13,24.11-1.13,3.58.19,10.92,0,9.98,5.46-.38,2.26-2.82,4.71-4.33,6.22-4.71,4.9-11.3,8.48-15.82,12.43.56-.38.94-.56,1.51-.56,0,0-13.94,13.18-15.25,14.31,10.73-.56,18.83,4.14,22.41,14.5.19-.19.38-.56.38-.94,0,.19.19.38.19.56Zm-17.7,21.85c-6.21,3.95-12.81,7.35-19.02,11.11-.19.19-3.01,3.01-4.14,2.83l3.01-2.07-4.14,2.26c.19,0,.38.19.38.38-1.32,2.07-5.84,3.96-7.91,5.08l-8.47,4.9c-5.27,3.01-10.74,6.03-15.26,10.17-4.71,4.14-13.37,12.24-7.72,18.65.94,1.13,2.07,1.69,3.39,2.07,1.51.38,9.61-.94,9.79-.94,0,0-.75.38-1.32.75,2.45-.94,4.9-2.07,7.35-3.39h-.19c1.88-.94,4.71-3.2,6.03-3.96,2.26-1.51,4.52-3.2,6.59-5.08,4.9-4.14,9.6-8.85,13.94-13.56,7.35-8.1,12.62-16.2,16.57-26.18.56-1.13.75-2.07,1.13-3.01Zm-22.41-32.02q.19,0,.38-.19h-.19l-.19.19Zm38.61,6.78c-2.07-3.39-6.59-7.72-7.54-8.48.19.19-8.47-3.39-8.47-2.83,0-.94,8.47,2.45,8.1,2.26,3.58,2.07,6.21,5.27,7.91,9.04Zm-10.36,49.72c0,.19-.19.19-.38.38.19-.19.38-.19.38-.38Zm10.36-49.72c.75,1.13,1.32,2.07,1.32,2.83-.38-.94-.75-1.88-1.32-2.83Zm.19-47.84h2.26c-.38,0-.94-.19-1.13-.19h-.19c-.38,0-.75.19-.94.19Zm2.64,59.7c-.94.75-.75,9.42-1.13,11.87.38-1.51.75-3.2.94-4.9.19-2.26.38-4.71.19-6.97Z"/>
        <path class="cls-4" d="m1369.25,364.23c-2.45,5.65-5.27,10.73-8.29,15.82-3.58,5.65-7.16,11.11-11.3,16.01-3.39,4.33-8.1,9.79-13.75,10.74-6.4,1.13-11.49-4.14-13.56-9.79-4.52-11.11-1.32-22.79,2.07-33.52,0,0,0-1.7.19-3.01-1.88,2.83-4.52,6.22-6.22,8.85-2.26,3.58-3.96,7.16-6.4,10.55-1.13,1.7-16.57,20.34-18.65,17.14,0,0,2.26-.94,2.07-1.32-2.26,1.51-5.27,1.88-7.91,1.13.56.38.94.56.75.56-4.33.57-7.72-6.21-8.66-9.23-1.51-5.27-1.13-11.11-.19-16.39,2.07-10.92,6.59-22.79,13-32.21,1.7-2.26,3.39-4.9,5.84-6.59,1.51-1.32,2.83-1.51,4.52-2.64,2.82-2.45,5.27-4.52,9.42-4.52,9.23,0,13,10.55,14.88,17.7,4.52-5.84,12.62-13.56,19.59-5.08,3.77,4.52,1.32,7.91-.75,12.05-3.58,6.59-6.4,14.69-7.91,21.47.19-.56.75-3.39,1.51-3.58,1.51-.38-12.05,42.19,7.34,18.27,5.84-7.35,10.92-15.07,16.01-22.79,2.26-3.58,4.52-7.35,6.97-10.92,1.13-1.51,4.52-5.08,4.71-.94.38,4.33-3.77,8.66-5.27,12.24Zm-47.84-13.94c0-1.51-3.77-11.87-2.82-12.62.19-.19,1.88,5.27,2.07,5.65-.57-2.26-1.32-9.23-4.71-9.23-6.21,0-10.92,11.49-13,15.82-3.77,8.48-7.16,17.52-8.66,26.74.57-2.83,11.49-36.91,14.88-36.73-2.64.56-12.62,29.57-13.18,32.21-.38,1.51-3.39,11.3-.56,12.24,1.88.57,6.4-5.27,7.35-6.59,3.58-4.33,6.97-8.85,10.17-13.56l4.9-6.97c.75-1.32,1.7-2.64,2.64-3.96q.94-1.51.94-3.01Zm.57-1.32v1.88c.56-.56.56-1.13,0-1.88Zm4.52,9.04l-.94,1.32c-.19.56-.75,3.2-.75,3.2l1.7-4.52Z"/>
        <path class="cls-4" d="m1462.85,364.23c-2.45,5.65-5.27,10.73-8.29,15.82-3.58,5.65-7.16,11.11-11.3,16.01-3.39,4.33-8.1,9.79-13.75,10.74-6.4,1.13-11.49-4.14-13.56-9.79-4.52-11.11-1.32-22.79,2.07-33.52,0,0,0-1.7.19-3.01-1.88,2.83-4.52,6.22-6.21,8.85-2.26,3.58-3.96,7.16-6.4,10.55-1.13,1.7-16.57,20.34-18.64,17.14,0,0,2.26-.94,2.07-1.32-2.26,1.51-5.27,1.88-7.91,1.13.57.38.94.56.75.56-4.33.57-7.72-6.21-8.66-9.23-1.51-5.27-1.13-11.11-.19-16.39,2.07-10.92,6.59-22.79,13-32.21,1.69-2.26,3.39-4.9,5.84-6.59,1.51-1.32,2.82-1.51,4.52-2.64,2.83-2.45,5.27-4.52,9.42-4.52,9.23,0,12.99,10.55,14.88,17.7,4.52-5.84,12.62-13.56,19.59-5.08,3.77,4.52,1.32,7.91-.75,12.05-3.58,6.59-6.4,14.69-7.91,21.47.19-.56.75-3.39,1.51-3.58,1.51-.38-12.05,42.19,7.35,18.27,5.84-7.35,10.92-15.07,16.01-22.79,2.26-3.58,4.52-7.35,6.97-10.92,1.13-1.51,4.52-5.08,4.71-.94.38,4.33-3.77,8.66-5.27,12.24Zm-47.84-13.94c0-1.51-3.77-11.87-2.83-12.62.19-.19,1.88,5.27,2.07,5.65-.56-2.26-1.32-9.23-4.71-9.23-6.21,0-10.92,11.49-12.99,15.82-3.77,8.48-7.16,17.52-8.66,26.74.56-2.83,11.49-36.91,14.88-36.73-2.64.56-12.62,29.57-13.18,32.21-.38,1.51-3.39,11.3-.57,12.24,1.88.57,6.4-5.27,7.35-6.59,3.58-4.33,6.97-8.85,10.17-13.56l4.9-6.97c.75-1.32,1.69-2.64,2.64-3.96q.94-1.51.94-3.01Zm.56-1.32v1.88c.56-.56.56-1.13,0-1.88Zm4.52,9.04l-.94,1.32c-.19.56-.75,3.2-.75,3.2l1.69-4.52Z"/>
        <path class="cls-4" d="m1540.45,359.71c-1.51,3.2-3.39,6.22-5.46,9.23-4.33,6.4-9.04,12.81-13.56,19.21-4.52,6.21-9.42,12.43-15.44,17.52-1.13.75-9.79,7.72-10.36,7.53,0-.19.19-.38.38-.56l-1.32.56c.94-.19-2.64,2.26-3.58,2.64-2.64.57-5.46-.19-7.72-1.69-2.45-1.51-3.77-3.77-4.9-6.4-1.88-4.14-2.07-8.1-1.32-12.62.19-.94,2.82-11.87,4.14-11.68.38,0-.38,1.51-.19,1.69l1.32-4.71c-.56-.19,9.42-21.28,10.36-22.6-5.65,1.13-12.81.94-16.76-3.96-1.13-1.51-.75-2.83-1.13-3.96-.56-1.51-1.32-2.26-1.7-3.58-1.88-9.23,8.85-22.04,17.89-15.82l-.38-.56c.19-1.13,2.45,1.69,2.64,2.64,0,.75-1.51,6.03-2.45,5.65-.19,0,1.13-3.39,1.13-3.58-1.32,3.58-5.27,7.53-5.65,11.3-.38,2.83,1.13,2.83,3.58,3.39,3.58.94,9.23.38,13.75,1.69-3.01-.94-6.59-1.13-9.04-1.51,0,0-.19,0-.19-.19,2.83.38,5.84.38,8.29.94,5.46,1.32,8.85,3.39,6.59,9.23-2.26,5.46-5.08,10.92-7.53,16.39-2.26,5.27-4.14,10.92-6.21,16.39-.56,1.88-4.71,9.79-3.2,11.68,1.88,2.26,12.24-7.16,15.07-10.17-.56.56-1.13.56-1.51.94-.38,0,3.77-5.27,4.33-6.03l5.46-6.97,10.17-13.37,10.36-13.94c.94-1.13,5.46-7.72,6.59-2.83.56,2.64-1.32,5.84-2.45,8.1Zm-58.38,50.85c-.19-.19-.38-.38-.38-.56l.19.19c-.94-2.07-1.88-4.14-2.26-5.27l.56,2.45-.75-3.96v-.19c-.19-.38-.19-.57-.19-.57,0,0,0,.19.19.38v-.94c-.19-2.64,0-5.08.38-7.53v-.19c-.38,1.7-.56,3.2-.56,5.09-.19,2.26,0,4.9.56,7.16.19.57,1.7,3.77,2.82,5.27,0-.19,0-.38-.19-.38,1.13,1.13,2.64,2.07,4.33,2.64-2.07-.75-3.58-2.26-4.71-3.77v.19Zm-2.26-16.38v.19c0-.19.19-.38.19-.56,0,.19-.19.19-.19.38Zm.56-3.58c0,.38-.19.56-.19.75,0-.19.19-.38.19-.75Zm.38,0c1.32-4.9,3.39-9.61,5.27-14.13l3.58-8.29c.94-1.7,4.9-10.92,5.84-11.49-1.32.38-3.96,7.16-4.33,7.72-1.7,3.2-3.2,6.4-4.52,9.79-2.26,5.27-4.52,10.74-5.84,16.39Zm.38,18.46c0-.19-.19-.38-.19-.38,0,.19.19.19.19.38Zm5.46-62.53s0-.19.19-.19l-.19.19Zm0,.19c.19.38,1.32,1.32,1.32,1.32.94.75,2.26,1.13,3.77,1.32-1.7-.19-3.39-.38-4.33-1.13-.38-.19-.75-1.13-.75-1.51Zm20.53,16.01l-3.96,8.48,3.96-8.29v-.19Zm0-.19h.19v-.19l-.19.19Zm0,0h.19v-.19l-.19.19Z"/>
      </g>
    </g>
  </g>
</svg>