<?xml version="1.0" encoding="utf-8"?>
<svg xmlns="http://www.w3.org/2000/svg" viewBox="0 0 500 170" xmlns:bx="https://boxy-svg.com" width="500px" height="170px"><defs><bx:export><bx:file format="svg"/></bx:export></defs><g transform="matrix(0.834619, 0, 0, 0.828564, -123.089592, -91.96946)"><path class="st0" d="M290.7,190.5c-4,0.4-7.7,1.4-11.2,3.1c13.8,0.3,26.4,9.3,30.8,23.2c6.6,20.9-12.9,52.4-9.5,78.1 c1.9-24.1,24.4-48.8,25.9-69.8c1.5,1,3.3,1.5,5.2,1.3c4.5-0.4,7.9-4.5,7.5-9c-0.4-4.6-4.4-7.9-9-7.5c-2.2,0.2-4.1,1.3-5.5,2.8 C320.1,198.6,306.2,189.1,290.7,190.5" style="fill: rgb(127, 36, 141);"/><g><defs><rect id="SVGID_1_" x="204.3" y="228" width="92" height="70"/></defs><clipPath id="SVGID_00000171705532260664903540000004971770789141741746_"><rect x="204.3" y="228" width="92" height="70" style="overflow: visible;"/></clipPath><g style="clip-path:url(#SVGID_00000171705532260664903540000004971770789141741746_);"><path class="st2" d="M289.9,237c-2.3-3.3-5.1-6-8.2-8.2c6.6,12.1,5.2,27.6-4.6,38.4c-14.8,16.2-51.7,15-72.1,30.8 c21.8-10.3,54.4-3.2,73.1-12.4c-0.1,1.8,0.4,3.6,1.5,5.2c2.6,3.7,7.8,4.6,11.5,2c3.7-2.6,4.6-7.8,2-11.6 c-1.3-1.8-3.1-2.9-5.1-3.3C297.6,266.5,298.8,249.7,289.9,237" style="fill: rgb(16, 130, 206);"/></g></g><g><defs><rect id="SVGID_00000096772305322096250500000005087259447524799646_" x="154.2" y="216" width="98.1" height="73.3"/></defs><clipPath id="SVGID_00000077284995318893244890000002290856395188997533_"><rect x="154.2" y="216" width="98.1" height="73.3" style="overflow: visible;"/></clipPath><g style="clip-path:url(#SVGID_00000077284995318893244890000002290856395188997533_);"><path class="st4" d="M249.3,259.4c1.7-3.6,2.6-7.4,2.9-11.2c-7.2,11.8-21.2,18.3-35.4,15.2c-21.3-4.7-38.8-37.4-62.6-47.3 c19.8,13.7,29.9,45.6,47.3,57.4c-1.6,0.8-2.9,2.1-3.7,3.9c-1.9,4.2-0.1,9.1,4,11c4.1,1.9,9,0.1,11-4.1c0.9-2,1-4.2,0.3-6.1 C227.7,281,242.8,273.6,249.3,259.4" style="fill: rgb(64, 185, 60);"/></g></g><path class="st5" d="M209.7,235.4c4-0.4,7.7-1.4,11.2-3.1c-13.8-0.3-26.4-9.3-30.8-23.2c-6.6-20.9,12.9-52.4,9.5-78.1 c-2,24.1-24.4,48.8-25.9,69.8c-1.5-1-3.3-1.5-5.2-1.3c-4.5,0.4-7.9,4.5-7.5,9c0.4,4.6,4.4,7.9,9,7.5c2.2-0.2,4.1-1.3,5.4-2.8 C180.2,227.4,194.2,236.9,209.7,235.4" style="fill: rgb(251, 193, 8);"/><g><defs><rect id="SVGID_00000046323906520116354210000001924215093591314602_" x="204.3" y="128" width="92" height="69.4"/></defs><clipPath id="SVGID_00000013176265014226147300000009301370586490055099_"><rect x="204.3" y="128" width="92" height="69.4" style="overflow: visible;"/></clipPath><g style="clip-path:url(#SVGID_00000013176265014226147300000009301370586490055099_);"><path class="st7" d="M210.5,189c2.3,3.3,5.1,6,8.2,8.2c-6.6-12.1-5.2-27.6,4.6-38.3c14.8-16.2,51.7-15,72.1-30.8 c-21.8,10.3-54.4,3.2-73.1,12.4c0.1-1.8-0.4-3.6-1.5-5.2c-2.6-3.7-7.8-4.6-11.5-2c-3.7,2.6-4.6,7.8-2,11.6 c1.3,1.8,3.1,2.9,5.1,3.3C202.8,159.4,201.6,176.3,210.5,189" style="fill: rgb(233, 19, 72);"/></g></g><g><defs><rect id="SVGID_00000023257549995459635670000017901057143933415808_" x="247" y="136" width="99.2" height="74.7"/></defs><clipPath id="SVGID_00000129906068824588036080000000733492930926661022_"><rect x="247" y="136" width="99.2" height="74.7" style="overflow: visible;"/></clipPath><g style="clip-path:url(#SVGID_00000129906068824588036080000000733492930926661022_);"><path class="st9" d="M251.1,166.5c-1.7,3.6-2.6,7.4-2.9,11.2c7.2-11.8,21.2-18.3,35.4-15.2c21.3,4.7,38.8,37.4,62.6,47.3 c-19.8-13.7-29.9-45.7-47.3-57.4c1.6-0.8,2.9-2.1,3.7-3.9c1.9-4.2,0.1-9.1-4-11c-4.1-1.9-9-0.1-11,4.1c-0.9,2-1,4.2-0.3,6.1 C272.7,145,257.6,152.4,251.1,166.5" style="fill: rgb(241, 71, 29);"/></g></g></g><g transform="matrix(0.834619, 0, 0, 0.828564, 48.499741, -95.057281)"><g transform="translate(211.305446, 278.914551)"/></g><g transform="matrix(0.834619, 0, 0, 0.828564, 126.259247, -202.101608)"><g><g transform="translate(48.050055, 260.456575)"><g><path class="st10" d="M35.2,59.3V70h-9.9V59.3h-7v27.5h7V76.1h9.9v10.7h7V59.3H35.2z" style="stroke-width: 60.1257px; fill: rgb(255, 255, 255);"/></g></g></g><g><g transform="translate(70.844094, 260.456575)"><g><path class="st10" d="M39,87.2c7.8,0,14.1-6.3,14.1-14.1c0-7.8-6.3-14.1-14.1-14.1c-7.8,0-14.1,6.3-14.1,14.1 C24.9,80.9,31.1,87.2,39,87.2z M39,80.3c-4.2,0-7.3-3.1-7.3-7.2c0-4.2,3.1-7.2,7.3-7.2c4.1,0,7.2,3.1,7.2,7.2 C46.2,77.2,43.1,80.3,39,80.3z" style="stroke-width: 60.1257px; fill: rgb(255, 255, 255);"/></g></g></g><g><g transform="translate(95.358163, 260.456575)"><g><path class="st10" d="M57.9,59.3l-8.2,17.5l-8.1-17.5H34v27.5h7V72l6.8,14.8h3.8l6.8-14.7v14.7h7V59.3H57.9z" style="stroke-width: 60.1257px; fill: rgb(255, 255, 255);"/></g></g></g><g><g transform="translate(123.759499, 260.456575)"><g><path class="st10" d="M60.8,65.4v-6.1H43.7v27.5h17.1v-6.1h-10v-4.6h8.5V70h-8.5v-4.6H60.8z" style="stroke-width: 60.1257px; fill: rgb(255, 255, 255);"/></g></g></g><g><g transform="translate(140.808642, 260.456575)"><g><path class="st10" d="M58.1,87.2c5.3,0,9.8-3.1,9.8-8.3c0-10.5-12.5-7.8-12.5-12c0-1.2,0.9-1.7,2-1.7c1.4,0,2.9,0.8,4.4,2.4 l4.6-4.4c-2.2-2.5-5.4-4.1-8.9-4.1c-4.4,0-9.2,2.5-9.2,8.4c0,9.5,12.5,7.2,12.5,11.4c0,1.1-0.9,1.9-2.7,1.9 c-2.4,0-4.3-1.3-5.3-3.3l-5.7,3.6C49.1,84.3,53.1,87.2,58.1,87.2z" style="stroke-width: 60.1257px; fill: rgb(255, 255, 255);"/></g></g></g><g><g transform="translate(158.580207, 260.456575)"><g><path class="st10" d="M68.2,87.2c5.5,0,10.2-3.1,12.6-7.7l-6.1-3.1c-1.2,2.4-3.6,3.9-6.5,3.9c-4.2,0-7.3-3.1-7.3-7.2 c0-4.2,3.1-7.2,7.3-7.2c2.9,0,5.3,1.5,6.5,3.9l6.1-3.1c-2.3-4.6-7.1-7.7-12.6-7.7c-7.8,0-14.1,6.3-14.1,14.1 C54.1,80.9,60.4,87.2,68.2,87.2z" style="stroke-width: 60.1257px; fill: rgb(255, 255, 255);"/></g></g></g><g><g transform="translate(181.615061, 260.456575)"><g><path class="st10" d="M79.7,59.3V70h-9.9V59.3h-7v27.5h7V76.1h9.9v10.7h7V59.3H79.7z" style="stroke-width: 60.1257px; fill: rgb(255, 255, 255);"/></g></g></g><g><g transform="translate(204.409095, 260.456575)"><g><path class="st10" d="M83.5,87.2c7.8,0,14.1-6.3,14.1-14.1c0-7.8-6.3-14.1-14.1-14.1c-7.8,0-14.1,6.3-14.1,14.1 C69.4,80.9,75.7,87.2,83.5,87.2z M83.5,80.3c-4.2,0-7.3-3.1-7.3-7.2c0-4.2,3.1-7.2,7.3-7.2c4.1,0,7.3,3.1,7.3,7.2 C90.8,77.2,87.6,80.3,83.5,80.3z" style="stroke-width: 60.1257px; fill: rgb(255, 255, 255);"/></g></g></g><g><g transform="translate(228.923158, 260.456575)"><g><path class="st10" d="M91.7,87.2c7.8,0,14.1-6.3,14.1-14.1c0-7.8-6.3-14.1-14.1-14.1c-7.8,0-14.1,6.3-14.1,14.1 C77.6,80.9,83.8,87.2,91.7,87.2z M91.7,80.3c-4.2,0-7.3-3.1-7.3-7.2c0-4.2,3.1-7.2,7.3-7.2c4.1,0,7.2,3.1,7.2,7.2 C98.9,77.2,95.8,80.3,91.7,80.3z" style="stroke-width: 60.1257px; fill: rgb(255, 255, 255);"/></g></g></g><g><g transform="translate(253.437221, 260.456575)"><g><path class="st10" d="M93.7,80.7V59.3h-7v27.5h15.8v-6.1H93.7z" style="stroke-width: 60.1257px; fill: rgb(255, 255, 255);"/></g></g></g><g><g transform="translate(268.181523, 260.456575)"><g><path class="st10" d="M91.8,86.8h7V59.3h-7V86.8z" style="stroke-width: 60.1257px; fill: rgb(255, 255, 255);"/></g></g></g><g><g transform="translate(278.556951, 260.456575)"><g><path class="st10" d="M114.8,59.3v16.8l-12.4-16.8h-7.3v27.5h7V69.9l12.4,16.9h7.4V59.3H114.8z" style="stroke-width: 60.1257px; fill: rgb(255, 255, 255);"/></g></g></g><g><g transform="translate(303.449433, 260.456575)"><g><path class="st10" d="M116.5,71.5v5.4h6.3c-1.3,2.1-3.5,3.4-6.2,3.4c-4.2,0-7.3-3.1-7.3-7.2c0-4.2,3.1-7.2,7.3-7.2 c2.9,0,5.3,1.5,6.5,3.9l6.1-3.1c-2.3-4.6-7.1-7.7-12.6-7.7c-7.8,0-14.1,6.3-14.1,14.1c0,7.8,6.3,14.1,14.1,14.1 c7.8,0,14.1-6.3,14.1-14.1v-1.5H116.5z" style="stroke-width: 60.1257px; fill: rgb(255, 255, 255);"/></g></g></g><g><g transform="translate(71.743726, 278.914551)"><g><path class="st10" d="M31.3,93.1c2.5,0,4.7-1.4,5.8-3.4L36,89.1c-0.9,1.6-2.6,2.7-4.6,2.7c-2.9,0-5.3-2.3-5.3-5.3 c0-2.9,2.4-5.3,5.3-5.3c2,0,3.7,1.1,4.6,2.7l1.2-0.7c-1.1-2-3.3-3.4-5.8-3.4c-3.7,0-6.7,3-6.7,6.7S27.7,93.1,31.3,93.1z" style="stroke-width: 60.1257px; fill: rgb(255, 255, 255);"/></g></g></g><g><g transform="translate(88.542965, 278.914551)"><g><path class="st10" d="M36.9,93.1c3.7,0,6.7-3,6.7-6.7s-3-6.7-6.7-6.7c-3.7,0-6.7,3-6.7,6.7S33.3,93.1,36.9,93.1z M36.9,91.8 c-2.9,0-5.3-2.3-5.3-5.3c0-2.9,2.4-5.3,5.3-5.3c2.9,0,5.3,2.3,5.3,5.3C42.2,89.4,39.9,91.8,36.9,91.8z" style="stroke-width: 60.1257px; fill: rgb(255, 255, 255);"/></g></g></g><g><g transform="translate(106.26818, 278.914551)"><g><path class="st10" d="M48.2,80l-5,11.3l-5-11.3h-1.5v13h1.4V82.7L42.6,93h1.1l4.5-10.2V93h1.4V80H48.2z" style="stroke-width: 60.1257px; fill: rgb(255, 255, 255);"/></g></g></g><g><g transform="translate(124.432012, 278.914551)"><g><path class="st10" d="M54.2,80l-5,11.3l-5-11.3h-1.5v13h1.4V82.7L48.6,93h1.1l4.5-10.2V93h1.4V80H54.2z" style="stroke-width: 60.1257px; fill: rgb(255, 255, 255);"/></g></g></g><g><g transform="translate(142.595845, 278.914551)"><g><path class="st10" d="M53.6,93.1c2.8,0,4.9-1.9,4.9-4.4V80h-1.4v8.5c0,1.9-1.5,3.3-3.5,3.3c-2,0-3.5-1.4-3.5-3.3V80h-1.4v8.7 C48.7,91.3,50.8,93.1,53.6,93.1z" style="stroke-width: 60.1257px; fill: rgb(255, 255, 255);"/></g></g></g><g><g transform="translate(158.306671, 278.914551)"><g><path class="st10" d="M63.4,80v10.7l-8-10.7H54v13h1.4V82.3l8,10.7h1.3V80H63.4z" style="stroke-width: 60.1257px; fill: rgb(255, 255, 255);"/></g></g></g><g><g transform="translate(174.813501, 278.914551)"><g><path class="st10" d="M59.6,93H61V80h-1.4V93z" style="stroke-width: 60.1257px; fill: rgb(255, 255, 255);"/></g></g></g><g><g transform="translate(184.48116, 278.914551)"><g><path class="st10" d="M70,80h-8.6v1.4H65V93h1.4V81.4H70V80z" style="stroke-width: 60.1257px; fill: rgb(255, 255, 255);"/></g></g></g><g><g transform="translate(197.316601, 278.914551)"><g><path class="st10" d="M75.9,80h-1.7l-3.5,5.4L67.2,80h-1.7l4.6,6.8V93h1.4v-6.2L75.9,80z" style="stroke-width: 60.1257px; fill: rgb(255, 255, 255);"/></g></g></g><g><g transform="translate(221.330492, 278.914551)"><g><path class="st10" d="M76.4,91.6V80H75v13h6.2v-1.4H76.4z" style="stroke-width: 60.1257px; fill: rgb(255, 255, 255);"/></g></g></g><g><g transform="translate(233.434907, 278.914551)"><g><path class="st10" d="M86.9,93h1.5l-4.7-13h-1.5l-4.7,13H79l1.1-3h5.8L86.9,93z M80.5,88.6l2.4-7l2.4,7H80.5z" style="stroke-width: 60.1257px; fill: rgb(255, 255, 255);"/></g></g></g><g><g transform="translate(247.74865, 278.914551)"><g><path class="st10" d="M92.4,80v5.8h-7.2V80h-1.4v13h1.4v-5.8h7.2V93h1.4V80H92.4z" style="stroke-width: 60.1257px; fill: rgb(255, 255, 255);"/></g></g></g><g><g transform="translate(263.686904, 278.914551)"><g><path class="st10" d="M95.3,93.1c3.7,0,6.7-3,6.7-6.7s-3-6.7-6.7-6.7c-3.7,0-6.7,3-6.7,6.7S91.6,93.1,95.3,93.1z M95.3,91.8 c-2.9,0-5.3-2.3-5.3-5.3c0-2.9,2.4-5.3,5.3-5.3c2.9,0,5.3,2.3,5.3,5.3C100.6,89.4,98.3,91.8,95.3,91.8z" style="stroke-width: 60.1257px; fill: rgb(255, 255, 255);"/></g></g></g><g><g transform="translate(281.412107, 278.914551)"><g><path class="st10" d="M100.3,87c1.7-0.2,3-1.7,3-3.4c0-2-1.6-3.6-3.6-3.6h-4.7v13h1.4v-5.9h2.4l3.7,5.9h1.6L100.3,87z M96.5,85.8v-4.4h3.2c1.3,0,2.3,0.9,2.3,2.2c0,1.3-1,2.2-2.3,2.2H96.5z" style="stroke-width: 60.1257px; fill: rgb(255, 255, 255);"/></g></g></g><g><g transform="translate(295.677121, 278.914551)"><g><path class="st10" d="M107,81.3V80h-7.1v13h7.1v-1.3h-5.7v-4.5h5v-1.3h-5v-4.5H107z" style="stroke-width: 60.1257px; fill: rgb(255, 255, 255);"/></g></g></g></g></svg>